<?xml version="1.0" encoding="utf-8"?>
<!-- Generator: Adobe Illustrator 27.5.0, SVG Export Plug-In . SVG Version: 6.00 Build 0)  -->
<svg version="1.1" xmlns="http://www.w3.org/2000/svg" xmlns:xlink="http://www.w3.org/1999/xlink" x="0px" y="0px"
	 viewBox="0 0 1000 1000" style="enable-background:new 0 0 1000 1000;" xml:space="preserve">
<g id="background">
	<rect style="fill:#F4F4F4;" width="1000" height="1000"/>
</g>
<g id="object">
	<g>
		<g>
			<g>
				<g>
					<polygon style="fill:#2F4C86;" points="695.778,714.739 893.257,714.739 845.773,662.304 893.257,609.869 799.025,609.869 
						799.025,696.264 699.459,711.163 699.459,609.869 695.778,609.869 					"/>
				</g>
			</g>
			<g>
				<g>
					<polygon style="fill:#2F4C86;" points="304.222,714.739 106.743,714.739 154.227,662.304 106.743,609.869 200.975,609.869 
						200.975,696.264 300.541,711.163 300.541,609.869 304.222,609.869 					"/>
				</g>
			</g>
		</g>
		<path style="fill:#81BFE6;" d="M658.088,245.905l11.845-90.889L500,112l-169.965,43.016l11.845,90.889L223.495,303.26v352.563
			c0,19.162,7.645,37.373,20.934,50.694c2.921,2.92,6.071,5.611,9.515,8.039L500,888l246.023-173.443
			c3.51-2.461,6.759-5.217,9.712-8.203c13.19-13.354,20.77-31.467,20.77-50.53V303.26L658.088,245.905z M738.706,655.824
			c0,11.057-5.414,21.459-14.437,27.857l-16.143,11.386L500,841.768L292.105,695.231l-16.406-11.55
			c-9.023-6.398-14.437-16.8-14.437-27.857V326.951l97.09-47.052c14.666-7.087,23.1-22.738,20.999-38.882l-7.514-57.618L500,150.98
			l128.13,32.418l-7.514,57.618c-2.099,16.143,6.333,31.795,21.001,38.882l97.09,47.052V655.824z"/>
		<path style="fill:#CBE8F7;" d="M713.703,342.602v75.959c-70.414-17.817-143.224-24.97-213.703-24.97
			c-70.972,0-143.355,7.678-213.703,25.495v-76.484l82.981-40.162c24.346-11.812,38.389-37.799,34.879-64.672L399.53,202.2
			L500,176.77L600.437,202.2l-4.625,35.568c-3.512,26.873,10.532,52.86,34.879,64.672L713.703,342.602z"/>
		<path style="fill:#81BFE6;" d="M635.96,291.605c-19.709-9.547-31.049-30.554-28.22-52.272l6.021-46.157l-113.762-28.791
			l-113.76,28.791l6.021,46.157c2.829,21.717-8.511,42.725-28.22,52.272l-89.764,43.476V655.82c0,6.845,3.34,13.284,8.932,17.226
			l216.791,152.822l216.792-152.822c5.591-3.943,8.932-10.381,8.932-17.226V335.081L635.96,291.605z M713.703,655.82
			c0,2.94-1.435,5.707-3.837,7.401l-209.866,147.94L290.134,663.221c-2.402-1.694-3.837-4.461-3.837-7.401V342.616l82.983-40.192
			c24.374-11.807,38.4-37.785,34.9-64.646l-4.64-35.568l100.46-25.424L600.46,202.21l-4.64,35.57
			c-3.5,26.858,10.526,52.836,34.9,64.644l82.983,40.192V655.82z"/>
		<path style="fill:#FFFFFF;" d="M620.625,241.014l7.511-57.6L500,150.982l-128.136,32.432l7.511,57.6
			c2.106,16.161-6.331,31.794-21.001,38.899l-97.09,47.022V655.82c0,11.063,5.399,21.473,14.438,27.846L500,841.765l224.277-158.1
			c9.04-6.372,14.438-16.782,14.438-27.846V326.936l-97.09-47.022C626.956,272.809,618.519,257.175,620.625,241.014z
			 M725.723,655.82c0,6.845-3.34,13.284-8.932,17.226L500,825.868L283.209,673.046c-5.592-3.943-8.932-10.381-8.932-17.226V335.081
			l89.763-43.476c19.71-9.547,31.049-30.554,28.22-52.272l-6.02-46.156L500,164.386l113.761,28.791l-6.02,46.156
			c-2.829,21.718,8.51,42.725,28.22,52.272l89.763,43.476V655.82z"/>
		<g>
			<g>
				<path style="fill:#81BFE6;" d="M713.703,418.561v237.263c0,2.92-1.443,5.709-3.839,7.383L500,811.155L290.136,663.206
					c-2.429-1.673-3.839-4.43-3.839-7.383V419.086c70.349-17.817,142.732-25.495,213.703-25.495
					C570.48,393.591,643.289,400.744,713.703,418.561z"/>
			</g>
		</g>
		<g style="opacity:0.4;">
			<g>
				<path d="M776.505,601.651v54.173c0,19.063-7.58,37.176-20.77,50.53c-15.749-4.233-31.631-8.006-47.609-11.287
					c-68.873-14.339-139.615-20.54-208.126-20.54c-68.97,0-139.188,6.365-207.895,20.704c-15.98,3.314-31.894,7.087-47.677,11.287
					c-13.288-13.322-20.934-31.532-20.934-50.694v-53.811c12.501-4.364,25.069-8.4,37.767-12.042
					c78.157-22.706,159.301-32.32,238.738-32.32c78.848,0,160.647,8.958,238.706,31.762
					C751.405,593.12,764.004,597.221,776.505,601.651z"/>
			</g>
		</g>
		<g>
			<g>
				<path style="fill:#2F4C86;" d="M793.642,581.824v109.412c-94.541-30.417-196.316-42.967-293.627-42.967
					c-98.173,0-198.807,12.874-294.18,43.291V582.213c94.727-36.092,195.793-50.814,294.18-50.814
					C597.602,531.399,699.715,545.116,793.642,581.824z"/>
				<path style="fill:#2F4C86;" d="M173.828,702.488c-0.739,0.519-1.447,1.005-2.185,1.557c0.062-0.324,0.062-0.487,0.123-0.811
					C172.443,703.007,173.15,702.716,173.828,702.488z"/>
				<path style="fill:#2F4C86;" d="M828.357,704.045c-0.739-0.551-1.447-1.038-2.186-1.557c0.678,0.227,1.385,0.519,2.063,0.746
					C828.294,703.558,828.325,703.721,828.357,704.045z"/>
			</g>
		</g>
		<polygon style="fill:#FFFFFF;" points="500,227.789 510.545,251.706 536.53,248.88 521.091,269.971 536.53,291.061 
			510.545,288.236 500,312.152 489.455,288.236 463.47,291.061 478.909,269.971 463.47,248.88 489.455,251.706 		"/>
	</g>
</g>
</svg>
